HIERARCHY
ROOT Hips
{
	OFFSET 0.000000 88.474243 0.000000
	CHANNELS 6 Xposition Yposition Zposition Zrotation Yrotation Xrotation 
	JOINT Hips_Spine
	{
		OFFSET 0.000000 0.000000 0.000000
		CHANNELS 3 Zrotation Yrotation Xrotation
		JOINT Spine
		{
			OFFSET 0.005100 8.711998 -0.691000
			CHANNELS 3 Zrotation Yrotation Xrotation
			JOINT Spine1
			{
				OFFSET -0.009200 8.660301 -1.275000
				CHANNELS 3 Zrotation Yrotation Xrotation
				JOINT Spine2
				{
					OFFSET 0.006300 9.852501 -1.857000
					CHANNELS 3 Zrotation Yrotation Xrotation
					JOINT Spine2_Neck
					{
						OFFSET 0.000000 0.000000 0.000000
						CHANNELS 3 Zrotation Yrotation Xrotation
						JOINT Neck
						{
							OFFSET 0.016300 11.420799 -0.263300
							CHANNELS 3 Zrotation Yrotation Xrotation
							End Site #name: Head
							{
								OFFSET -0.019200 9.262405 2.362500
							}
						}
					}
					JOINT Spine2_LeftShoulder
					{
						OFFSET 0.000000 0.000000 0.000000
						CHANNELS 3 Zrotation Yrotation Xrotation
						JOINT LeftShoulder
						{
							OFFSET 5.616900 6.732201 -0.345700
							CHANNELS 3 Zrotation Yrotation Xrotation
							JOINT LeftArm
							{
								OFFSET 10.664888 -0.183372 -2.440700
								CHANNELS 3 Zrotation Yrotation Xrotation
								JOINT LeftForeArm
								{
									OFFSET 27.459126 0.000000 0.000000
									CHANNELS 3 Zrotation Yrotation Xrotation
									End Site #name: LeftHand
									{
										OFFSET 21.306858 0.000000 0.000000
									}
								}
							}
						}
					}
					JOINT Spine2_RightShoulder
					{
						OFFSET 0.000000 0.000000 0.000000
						CHANNELS 3 Zrotation Yrotation Xrotation
						JOINT RightShoulder
						{
							OFFSET -5.580300 6.737503 -0.344400
							CHANNELS 3 Zrotation Yrotation Xrotation
							JOINT RightArm
							{
								OFFSET -10.679335 -0.188484 -2.383900
								CHANNELS 3 Zrotation Yrotation Xrotation
								JOINT RightForeArm
								{
									OFFSET -27.503529 0.000000 0.000000
									CHANNELS 3 Zrotation Yrotation Xrotation
									End Site #name: RightHand
									{
										OFFSET -21.306808 0.000000 0.000000
									}
								}
							}
						}
					}
				}
			}
		}
	}
	JOINT Hips_LeftUpLeg
	{
		OFFSET 0.000000 0.000000 0.000000
		CHANNELS 3 Zrotation Yrotation Xrotation
		JOINT LeftUpLeg
		{
			OFFSET 6.857700 -6.739601 0.312100
			CHANNELS 3 Zrotation Yrotation Xrotation
			JOINT LeftLeg
			{
				OFFSET -0.367590 -34.731552 -4.572400
				CHANNELS 3 Zrotation Yrotation Xrotation
				End Site #name: LeftFoot
				{
					OFFSET 0.367590 -34.656704 -6.067400
				}
			}
		}
	}
	JOINT Hips_RightUpLeg
	{
		OFFSET 0.000000 0.000000 0.000000
		CHANNELS 3 Zrotation Yrotation Xrotation
		JOINT RightUpLeg
		{
			OFFSET -6.876100 -6.733299 0.301000
			CHANNELS 3 Zrotation Yrotation Xrotation
			JOINT RightLeg
			{
				OFFSET 0.347353 -34.795158 -4.515900
				CHANNELS 3 Zrotation Yrotation Xrotation
				End Site #name: RightFoot
				{
					OFFSET -0.347353 -34.589367 -6.070300
				}
			}
		}
	}
}
MOTION
Frames: 18
Frame Time: 0.041667
0.043086 -0.028909 -0.089233 -14.934742 72.483241 -12.709634 -0.000000 -0.000000 0.000000 -3.322581 0.835084 0.113489 1.675436 -0.496356 4.017082 0.000000 0.000000 0.000000 2.359354 -1.065182 1.296329 -1.404924 -5.314757 -2.961951 1.021018 -0.069423 2.098233 -13.032986 2.928448 -0.039692 -73.312115 -0.380030 4.778037 -0.392305 -19.171041 1.787796 0.979203 -1.114340 3.092125 17.492065 14.017169 4.674164 47.097369 9.912083 -19.929691 -8.707746 73.049316 -4.787745 0.000000 -0.000000 -0.000000 -2.151542 18.282866 -16.212292 -4.250252 -21.385550 3.065358 0.000000 -0.000000 -0.000000 -2.884988 -18.533402 -13.843887 -11.698783 -8.142163 18.052496 
0.082707 -0.147755 -0.048369 -9.977091 67.118776 -5.727553 -0.000000 -0.000000 0.000000 -4.706759 -1.897112 2.601197 2.720935 -0.451082 3.223774 0.000000 0.000000 0.000000 2.600388 -0.802622 3.020310 -0.562730 -8.728490 -3.480407 1.634648 -0.460287 1.543184 -9.194339 -2.523285 0.597165 -78.122373 -8.764230 -0.568662 -1.667397 -14.190605 1.517478 2.623558 -1.382038 3.370050 22.251793 14.080040 4.184280 49.989279 10.686243 -16.212647 -3.787261 64.546207 -0.078084 0.000000 -0.000000 -0.000000 -1.691145 18.367175 -16.329769 -3.779072 -20.006630 0.877435 0.000000 -0.000000 -0.000000 -3.912650 -17.243572 -13.569325 -8.695271 -5.708717 18.052373 
0.189826 -0.181063 -0.020886 -11.068176 67.722232 -6.222959 -0.000000 -0.000000 0.000000 -2.196825 -4.836824 2.644557 3.306438 -0.764093 3.248676 0.000000 0.000000 0.000000 3.464636 -1.151866 4.024071 -0.271743 -13.472017 -3.561316 1.879040 -0.537355 1.532861 -8.309101 -1.476296 -0.135676 -79.212150 -10.181714 -5.259688 -1.395135 -4.473258 1.337901 3.157775 -1.566056 3.519177 23.857859 15.624377 4.768982 49.846280 12.192238 -15.120974 -4.611645 64.392981 -0.213112 0.000000 -0.000000 -0.000000 -0.523312 19.843459 -15.723216 -3.626126 -20.046665 1.211162 0.000000 -0.000000 -0.000000 -4.004092 -19.319649 -12.124948 -6.622779 -5.104568 17.487465 
0.286854 -0.239051 -0.023045 -14.609232 69.453944 -10.476228 -0.000000 -0.000000 0.000000 -0.024063 -6.571568 3.448448 3.287988 -1.143972 3.431583 0.000000 0.000000 0.000000 3.626360 -1.433097 4.330830 -0.278331 -15.797699 -3.137632 1.871594 -0.887823 1.562596 -7.451664 -0.685147 -0.898152 -81.084931 -12.782778 -6.107434 -1.441546 0.082002 1.212935 3.184924 -2.143633 3.625682 23.466595 15.355691 4.694867 49.407335 13.769722 -17.279715 -5.573838 70.334836 -1.004987 0.000000 0.000000 -0.000000 0.037708 21.324873 -15.237732 -3.108470 -20.670590 1.772933 0.000000 -0.000000 -0.000000 -3.946450 -22.281609 -11.082851 -6.410268 -4.764529 16.979969 
0.363114 -0.294923 -0.051263 -16.920326 69.978811 -13.304767 -0.000000 -0.000000 0.000000 1.797406 -6.472031 4.227807 2.860845 -1.370194 3.393456 0.000000 0.000000 0.000000 3.320501 -1.579580 4.510736 0.016296 -17.001271 -2.601308 1.653059 -1.250022 1.599589 -6.727454 0.637592 -1.981815 -81.707872 -14.730560 -5.709688 -1.331683 1.595168 1.370788 2.780003 -2.526526 3.629811 22.848027 13.234058 3.803454 49.873030 14.490252 -19.310124 -7.938210 77.921827 -3.417421 0.000000 0.000000 -0.000000 0.317389 22.009525 -14.784451 -2.906496 -20.739689 2.148266 -0.000000 -0.000000 -0.000000 -3.783934 -24.638720 -10.359410 -7.636570 -5.109121 16.782014 
0.434455 -0.333067 -0.091130 -17.360563 68.988356 -13.860693 -0.000000 -0.000000 0.000000 3.241169 -5.411393 4.597744 2.177576 -1.484910 3.243676 0.000000 0.000000 0.000000 2.830046 -1.597686 4.589446 -0.038217 -17.739266 -1.720810 1.286416 -1.432457 1.711725 -6.692537 1.169171 -2.093023 -81.447788 -15.299128 -4.442358 -1.056099 1.538313 1.591563 2.102618 -2.693848 3.663131 22.344899 11.985872 2.636374 50.959569 14.119792 -19.333854 -13.795998 83.561310 -9.297392 0.000000 0.000000 -0.000000 0.376434 21.873746 -14.638590 -2.900921 -20.897735 2.396170 -0.000000 -0.000000 -0.000000 -3.535873 -26.643381 -10.129115 -9.334011 -5.971509 16.956233 
0.501216 -0.360265 -0.139361 -16.831775 67.670902 -13.079081 -0.000000 -0.000000 0.000000 4.336336 -4.738518 4.746121 1.469571 -1.517286 3.300107 0.000000 0.000000 0.000000 2.319052 -1.572314 4.744363 0.062235 -18.331647 -1.217858 0.881456 -1.510627 1.776276 -6.799104 1.148665 -1.806531 -80.764219 -14.995635 -2.779769 -0.913592 0.579816 2.303073 1.520828 -2.758304 3.618024 22.201620 11.654116 2.249351 52.252820 12.338512 -17.676720 -22.965736 86.159390 -18.553039 0.000000 0.000000 -0.000000 0.333971 21.330093 -14.683469 -2.912353 -21.315925 2.235087 -0.000000 -0.000000 -0.000000 -3.237281 -28.775343 -10.268862 -10.602283 -6.852923 17.220069 
0.568388 -0.384967 -0.185855 -16.285474 66.911994 -12.122316 -0.000000 -0.000000 0.000000 5.007398 -4.482467 4.693034 0.962286 -1.557070 3.440958 0.000000 0.000000 0.000000 1.915511 -1.539761 4.861075 0.132148 -18.590187 -0.881797 0.559803 -1.530168 1.870423 -6.939590 0.970065 -1.466630 -80.177878 -14.578724 -1.428784 -0.805667 -0.454857 2.883721 1.123963 -2.773526 3.568479 21.894838 11.356348 2.819816 53.549643 10.089099 -15.520952 -35.757650 87.314402 -31.411875 0.000000 0.000000 -0.000000 0.256551 20.738048 -14.716677 -2.839601 -21.842135 1.684424 -0.000000 -0.000000 -0.000000 -2.913085 -30.682117 -10.679611 -11.515522 -7.596671 17.526573 
0.644584 -0.410669 -0.220171 -15.980883 66.819989 -11.464176 -0.000000 -0.000000 0.000000 5.302315 -4.462282 4.400947 0.637063 -1.592291 3.620816 0.000000 0.000000 0.000000 1.651104 -1.533379 4.907387 0.202904 -18.640972 -0.693824 0.346384 -1.526420 1.941413 -6.968896 1.034128 -1.384245 -79.661985 -14.302725 -0.508021 -0.230229 -1.480352 3.756813 0.843533 -2.813399 3.604089 21.520117 11.150888 3.361644 54.498344 7.896360 -13.319398 -44.259324 87.544269 -39.975071 0.000000 0.000000 -0.000000 0.214913 20.253393 -14.652073 -2.755722 -22.309570 1.113079 0.000000 -0.000000 -0.000000 -2.624537 -32.364368 -11.155674 -12.113024 -7.987375 17.937280 
0.727738 -0.436376 -0.246147 -15.896183 67.022174 -11.198435 -0.000000 -0.000000 0.000000 5.342379 -4.522658 4.307343 0.460620 -1.654620 3.769775 0.000000 0.000000 0.000000 1.505742 -1.550277 5.001171 0.372967 -18.643334 -0.527777 0.214072 -1.541170 2.018794 -6.911576 1.189141 -1.469521 -79.431397 -14.150620 0.034919 0.351410 -2.298462 4.573600 0.651056 -2.875853 3.660656 21.188161 11.036910 3.814083 55.116416 6.147615 -11.584419 -72.769151 88.100848 -68.532850 0.000000 0.000000 -0.000000 0.244657 19.955440 -14.451747 -2.701587 -22.677503 0.734235 0.000000 -0.000000 -0.000000 -2.418804 -33.269282 -11.518334 -12.503711 -8.345185 18.366826 
0.816367 -0.459290 -0.267167 -16.006099 67.223121 -11.288066 -0.000000 -0.000000 0.000000 5.327744 -4.588861 4.344068 0.334156 -1.745110 3.918932 0.000000 0.000000 0.000000 1.399871 -1.581176 5.100240 0.584042 -18.641112 -0.427239 0.114975 -1.583304 2.111076 -6.813676 1.404871 -1.571896 -79.393596 -14.231469 0.459748 0.759764 -2.683359 5.057952 0.512763 -2.963657 3.729526 20.795377 11.005450 4.015289 55.523890 4.942862 -10.413496 -137.443783 87.304527 -133.244971 0.000000 0.000000 -0.000000 0.309453 19.808644 -14.158652 -2.652312 -22.893919 0.508837 0.000000 -0.000000 -0.000000 -2.314068 -33.206358 -11.683307 -12.617111 -8.741347 18.630660 
0.907847 -0.478413 -0.287151 -16.164768 67.340784 -11.492052 -0.000000 -0.000000 0.000000 5.294501 -4.686615 4.416593 0.234233 -1.839707 4.068065 0.000000 0.000000 0.000000 1.326477 -1.617483 5.211558 0.763455 -18.574178 -0.415091 0.045700 -1.638135 2.211000 -6.706771 1.568610 -1.663184 -79.353994 -14.510390 0.922843 1.010680 -2.680540 5.244413 0.418278 -3.061824 3.811830 20.446062 11.026938 4.049545 55.658860 4.442190 -9.991766 -161.522825 84.371154 -157.308603 0.000000 0.000000 -0.000000 0.381873 19.758873 -13.863035 -2.618619 -23.095032 0.378917 0.000000 -0.000000 -0.000000 -2.285719 -32.477690 -11.698841 -12.452048 -9.094632 18.690857 
0.999785 -0.495029 -0.308934 -16.283949 67.326199 -11.667016 -0.000000 -0.000000 0.000000 5.258483 -4.815200 4.552225 0.150080 -1.928095 4.206838 0.000000 0.000000 0.000000 1.264688 -1.658758 5.306604 0.891169 -18.493429 -0.456391 -0.010260 -1.697241 2.315557 -6.576757 1.707015 -1.762835 -79.276561 -14.666055 1.407962 1.179355 -2.502426 5.258199 0.356456 -3.149807 3.903678 20.212224 11.019501 4.003466 55.643192 4.630394 -10.024130 -168.621434 81.353825 -164.342350 0.000000 0.000000 -0.000000 0.449538 19.764011 -13.609824 -2.599356 -23.297828 0.281095 0.000000 0.000000 -0.000000 -2.288438 -31.434104 -11.647743 -12.118953 -9.352493 18.610624 
1.092064 -0.510911 -0.332826 -16.351232 67.274495 -11.770488 0.000000 -0.000000 0.000000 5.245783 -4.950497 4.690072 0.075160 -2.016726 4.340849 0.000000 0.000000 0.000000 1.206391 -1.700548 5.402084 0.983919 -18.404951 -0.508416 -0.058434 -1.754248 2.415547 -6.434429 1.842750 -1.873189 -79.171262 -14.771590 1.809418 1.305802 -2.273920 5.204490 0.305509 -3.231629 3.998384 19.974491 11.077589 3.923288 55.540950 5.214011 -10.486022 -172.039561 78.453911 -167.708307 0.000000 0.000000 -0.000000 0.505924 19.778945 -13.390583 -2.577469 -23.525383 0.144503 0.000000 0.000000 -0.000000 -2.309775 -30.357463 -11.572799 -11.717850 -9.507826 18.450126 
1.183753 -0.527601 -0.359323 -16.401937 67.221490 -11.828949 0.000000 -0.000000 0.000000 5.249762 -5.102006 4.827417 0.003753 -2.100627 4.467863 0.000000 0.000000 0.000000 1.151694 -1.744204 5.496465 1.056125 -18.328085 -0.559143 -0.102580 -1.812599 2.504764 -6.302633 1.967529 -1.973694 -79.089571 -14.835874 2.147644 1.401548 -2.342045 5.128523 0.267638 -3.301954 4.101492 19.748308 11.268974 3.851655 55.510857 5.840029 -11.100248 -174.084694 75.707398 -169.714259 0.000000 0.000000 -0.000000 0.557386 19.792086 -13.211315 -2.550735 -23.768992 -0.027397 0.000000 0.000000 -0.000000 -2.337550 -29.492667 -11.515458 -11.319717 -9.569822 18.291023 
1.273969 -0.546059 -0.388726 -16.479068 67.216933 -11.890236 0.000000 -0.000000 0.000000 5.297677 -5.243401 4.908730 -0.059134 -2.179161 4.582543 0.000000 0.000000 0.000000 1.104730 -1.787713 5.581459 1.117717 -18.272348 -0.613068 -0.142749 -1.869145 2.573936 -6.199897 2.087968 -2.052675 -79.012037 -14.885770 2.452343 1.472475 -2.636635 5.063180 0.230893 -3.369641 4.185285 19.538179 11.632587 3.820793 55.458466 6.426594 -11.782178 -175.423015 73.163462 -171.010216 0.000000 0.000000 -0.000000 0.603715 19.796052 -13.072871 -2.520016 -24.011591 -0.207090 0.000000 0.000000 -0.000000 -2.355030 -28.891127 -11.487520 -10.988186 -9.571351 18.182360 
1.361898 -0.566398 -0.421193 -16.600744 67.295800 -11.981040 0.000000 -0.000000 0.000000 5.375991 -5.388179 4.954106 -0.115969 -2.247541 4.683275 0.000000 0.000000 0.000000 1.065698 -1.828912 5.657880 1.158848 -18.248353 -0.664942 -0.175986 -1.920198 2.628864 -6.113806 2.195821 -2.118408 -78.931935 -14.940594 2.734705 1.534042 -2.867428 4.990190 0.199583 -3.430452 4.255095 19.358551 11.989145 3.784372 55.441677 6.916035 -12.362896 -176.455683 70.813511 -172.021869 0.000000 0.000000 -0.000000 0.650364 19.787159 -12.951877 -2.480075 -24.233299 -0.404688 0.000000 0.000000 -0.000000 -2.362838 -28.538955 -11.482777 -10.718425 -9.517880 18.123488 
1.446934 -0.588522 -0.455729 -16.732616 67.448978 -12.080110 0.000000 -0.000000 0.000000 5.479908 -5.514346 4.975598 -0.163333 -2.301023 4.771261 0.000000 0.000000 0.000000 1.034867 -1.864797 5.725480 1.187989 -18.270532 -0.710250 -0.202252 -1.961652 2.677975 -6.049580 2.312800 -2.180636 -78.882559 -14.947602 2.958115 1.593988 -3.081239 4.904450 0.178006 -3.481866 4.315099 19.233515 12.243553 3.748143 55.471517 7.273662 -12.845430 -177.199963 68.688200 -172.751105 0.000000 0.000000 -0.000000 0.695738 19.778352 -12.848225 -2.437423 -24.441964 -0.604266 0.000000 0.000000 -0.000000 -2.362623 -28.398939 -11.483337 -10.530068 -9.434180 18.091949 
